<?xml version="1.0" standalone="no"?>
<!DOCTYPE svg PUBLIC "-//W3C//DTD SVG 20010904//EN"
 "http://www.w3.org/TR/2001/REC-SVG-20010904/DTD/svg10.dtd">
<svg version="1.0" xmlns="http://www.w3.org/2000/svg"
 width="696.000000pt" height="222.000000pt" viewBox="0 0 696.000000 222.000000"
 preserveAspectRatio="xMidYMid meet">

<g transform="translate(0.000000,222.000000) scale(0.100000,-0.100000)"
fill="#000000" stroke="none">
<path d="M792 1905 c-337 -76 -593 -338 -663 -678 -60 -292 38 -594 259 -798
175 -161 386 -237 626 -226 209 9 375 76 534 215 l32 28 0 307 0 307 -145 0
-145 0 0 -239 0 -240 -63 -31 c-89 -43 -159 -60 -257 -60 -162 0 -282 50 -398
165 -122 122 -181 279 -169 448 10 149 69 270 182 376 108 101 240 151 395
151 134 0 247 -39 348 -119 l53 -42 93 98 c51 54 93 103 93 108 0 15 -109 100
-180 139 -34 19 -105 49 -157 67 -85 28 -109 32 -235 35 -97 3 -159 -1 -203
-11z"/>
<path d="M4000 1060 l0 -840 715 0 715 0 0 145 0 145 -570 0 -570 0 0 695 0
695 -145 0 -145 0 0 -840z"/>
<path d="M5323 1853 c14 -27 142 -290 286 -585 l261 -537 0 -255 0 -256 145 0
145 0 0 259 0 259 280 573 c154 316 280 577 280 582 0 4 -63 6 -141 5 l-140
-3 -207 -427 c-114 -235 -211 -426 -215 -425 -5 2 -102 194 -216 427 l-207
425 -148 3 -147 3 24 -48z"/>
<path d="M2574 1875 c-84 -15 -221 -77 -308 -139 -244 -174 -386 -483 -355
-778 45 -434 413 -768 849 -768 131 0 245 27 365 85 220 107 367 272 444 501
99 291 25 620 -189 847 -120 128 -291 226 -439 253 -94 17 -273 16 -367 -1z
m626 -490 c21 -22 22 -27 8 -42 -98 -118 -348 -407 -488 -566 l-95 -108 -29
33 c-35 39 -151 167 -236 258 -33 36 -60 70 -60 77 0 6 13 21 29 32 l29 21
137 -143 137 -142 27 31 c218 258 497 574 506 574 6 0 22 -11 35 -25z"/>
</g>
</svg>
